<svg width="249" height="249" viewBox="0 0 249 249" fill="none" xmlns="http://www.w3.org/2000/svg">
<rect width="249" height="249" rx="25.8147" fill="#010000"/>
<path d="M182.206 194C172.317 194 163.65 192.389 156.206 189.167C148.872 185.944 143.15 181.389 139.039 175.5C135.039 169.5 133.039 162.556 133.039 154.667C133.039 147 135.317 140.333 139.872 134.667C144.539 129 150.761 124.722 158.539 121.833V121.167C152.206 118.389 147.039 114.278 143.039 108.833C139.039 103.389 137.039 97.5 137.039 91.1667C137.039 83.8333 138.872 77.5 142.539 72.1667C146.317 66.7222 151.539 62.5 158.206 59.5C164.984 56.5 172.984 55 182.206 55C191.539 55 199.539 56.5 206.206 59.5C212.984 62.5 218.206 66.7222 221.872 72.1667C225.539 77.6111 227.372 83.9444 227.372 91.1667C227.372 97.3889 225.428 103.111 221.539 108.333C217.65 113.444 212.372 117.389 205.706 120.167V120.833C213.484 123.722 219.706 128.167 224.372 134.167C229.039 140.056 231.372 146.889 231.372 154.667C231.372 162.556 229.317 169.444 225.206 175.333C221.206 181.222 215.539 185.833 208.206 189.167C200.872 192.389 192.206 194 182.206 194ZM182.206 178.333C191.428 178.333 198.872 176.056 204.539 171.5C210.206 166.944 213.039 160.944 213.039 153.5C213.039 146.167 210.206 140.222 204.539 135.667C198.872 131.111 191.428 128.833 182.206 128.833C172.984 128.833 165.539 131.111 159.872 135.667C154.206 140.222 151.372 146.167 151.372 153.5C151.372 160.944 154.206 166.944 159.872 171.5C165.539 176.056 172.984 178.333 182.206 178.333ZM182.206 113.5C190.65 113.5 197.206 111.611 201.872 107.833C206.65 103.944 209.039 98.6667 209.039 92C209.039 85.4444 206.65 80.2222 201.872 76.3333C197.206 72.4444 190.65 70.5 182.206 70.5C173.872 70.5 167.317 72.4444 162.539 76.3333C157.761 80.2222 155.372 85.4444 155.372 92C155.372 98.6667 157.761 103.944 162.539 107.833C167.317 111.611 173.872 113.5 182.206 113.5Z" fill="white"/>
<path d="M67.1667 194C57.2778 194 48.6111 192.389 41.1667 189.167C33.8333 185.944 28.1111 181.389 24 175.5C20 169.5 18 162.556 18 154.667C18 147 20.2778 140.333 24.8333 134.667C29.5 129 35.7222 124.722 43.5 121.833V121.167C37.1667 118.389 32 114.278 28 108.833C24 103.389 22 97.5 22 91.1667C22 83.8333 23.8333 77.5 27.5 72.1667C31.2778 66.7222 36.5 62.5 43.1667 59.5C49.9444 56.5 57.9444 55 67.1667 55C76.5 55 84.5 56.5 91.1667 59.5C97.9444 62.5 103.167 66.7222 106.833 72.1667C110.5 77.6111 112.333 83.9444 112.333 91.1667C112.333 97.3889 110.389 103.111 106.5 108.333C102.611 113.444 97.3333 117.389 90.6667 120.167V120.833C98.4444 123.722 104.667 128.167 109.333 134.167C114 140.056 116.333 146.889 116.333 154.667C116.333 162.556 114.278 169.444 110.167 175.333C106.167 181.222 100.5 185.833 93.1667 189.167C85.8333 192.389 77.1667 194 67.1667 194ZM67.1667 178.333C76.3889 178.333 83.8333 176.056 89.5 171.5C95.1667 166.944 98 160.944 98 153.5C98 146.167 95.1667 140.222 89.5 135.667C83.8333 131.111 76.3889 128.833 67.1667 128.833C57.9444 128.833 50.5 131.111 44.8333 135.667C39.1667 140.222 36.3333 146.167 36.3333 153.5C36.3333 160.944 39.1667 166.944 44.8333 171.5C50.5 176.056 57.9444 178.333 67.1667 178.333ZM67.1667 113.5C75.6111 113.5 82.1667 111.611 86.8333 107.833C91.6111 103.944 94 98.6667 94 92C94 85.4444 91.6111 80.2222 86.8333 76.3333C82.1667 72.4444 75.6111 70.5 67.1667 70.5C58.8333 70.5 52.2778 72.4444 47.5 76.3333C42.7222 80.2222 40.3333 85.4444 40.3333 92C40.3333 98.6667 42.7222 103.944 47.5 107.833C52.2778 111.611 58.8333 113.5 67.1667 113.5Z" fill="white"/>
</svg>
